<mxfile host="Electron" modified="2023-05-13T12:22:57.340Z" agent="Mozilla/5.0 (Windows NT 10.0; Win64; x64) AppleWebKit/537.36 (KHTML, like Gecko) draw.io/21.2.8 Chrome/112.0.5615.165 Electron/24.2.0 Safari/537.36" etag="ZXBS4k9_fzp_kQBg7lYI" version="21.2.8" type="device">
  <diagram name="Page-1" id="fdOjv5Yih3D2vsXfZdxz">
    <mxGraphModel dx="2614" dy="1153" grid="1" gridSize="10" guides="1" tooltips="1" connect="1" arrows="1" fold="1" page="1" pageScale="1" pageWidth="850" pageHeight="1100" math="0" shadow="0">
      <root>
        <mxCell id="0" />
        <mxCell id="1" parent="0" />
        <mxCell id="woJ9Bzw3rTFBJg0xR-H4-36" value="" style="rounded=1;whiteSpace=wrap;html=1;fillColor=none;" vertex="1" parent="1">
          <mxGeometry x="-400" y="60" width="930" height="890" as="geometry" />
        </mxCell>
        <mxCell id="woJ9Bzw3rTFBJg0xR-H4-23" value="" style="rounded=0;whiteSpace=wrap;html=1;fillColor=none;dashed=1;" vertex="1" parent="1">
          <mxGeometry x="-10" y="650" width="310" height="230" as="geometry" />
        </mxCell>
        <mxCell id="woJ9Bzw3rTFBJg0xR-H4-2" style="edgeStyle=orthogonalEdgeStyle;rounded=0;orthogonalLoop=1;jettySize=auto;html=1;" edge="1" parent="1" source="woJ9Bzw3rTFBJg0xR-H4-1" target="woJ9Bzw3rTFBJg0xR-H4-4">
          <mxGeometry relative="1" as="geometry">
            <mxPoint x="-50" y="410" as="targetPoint" />
          </mxGeometry>
        </mxCell>
        <mxCell id="woJ9Bzw3rTFBJg0xR-H4-1" value="PRODUCT MANAGEMENT API" style="rounded=1;whiteSpace=wrap;html=1;" vertex="1" parent="1">
          <mxGeometry x="-237.5" y="230" width="210" height="60" as="geometry" />
        </mxCell>
        <mxCell id="woJ9Bzw3rTFBJg0xR-H4-4" value="ADD PRODUCT" style="rounded=1;whiteSpace=wrap;html=1;" vertex="1" parent="1">
          <mxGeometry x="-290" y="430" width="120" height="60" as="geometry" />
        </mxCell>
        <mxCell id="woJ9Bzw3rTFBJg0xR-H4-5" value="GET ALL PRODUCTS" style="rounded=1;whiteSpace=wrap;html=1;" vertex="1" parent="1">
          <mxGeometry x="-110" y="430" width="120" height="60" as="geometry" />
        </mxCell>
        <mxCell id="woJ9Bzw3rTFBJg0xR-H4-9" value="" style="endArrow=none;html=1;rounded=0;" edge="1" parent="1">
          <mxGeometry width="50" height="50" relative="1" as="geometry">
            <mxPoint x="-130" y="360" as="sourcePoint" />
            <mxPoint x="-40" y="360" as="targetPoint" />
          </mxGeometry>
        </mxCell>
        <mxCell id="woJ9Bzw3rTFBJg0xR-H4-12" value="" style="endArrow=classic;html=1;rounded=0;entryX=0.583;entryY=0;entryDx=0;entryDy=0;entryPerimeter=0;" edge="1" parent="1" target="woJ9Bzw3rTFBJg0xR-H4-5">
          <mxGeometry width="50" height="50" relative="1" as="geometry">
            <mxPoint x="-40" y="360" as="sourcePoint" />
            <mxPoint x="130" y="420" as="targetPoint" />
          </mxGeometry>
        </mxCell>
        <mxCell id="woJ9Bzw3rTFBJg0xR-H4-14" value="&lt;h1&gt;&lt;font style=&quot;font-size: 18px;&quot;&gt;/addProduct&amp;nbsp;&lt;/font&gt;&lt;/h1&gt;" style="text;html=1;strokeColor=none;fillColor=none;spacing=5;spacingTop=-20;whiteSpace=wrap;overflow=hidden;rounded=0;" vertex="1" parent="1">
          <mxGeometry x="-280" y="500" width="130" height="120" as="geometry" />
        </mxCell>
        <mxCell id="woJ9Bzw3rTFBJg0xR-H4-15" value="&lt;h1&gt;&lt;font style=&quot;font-size: 18px;&quot;&gt;/getProducts&lt;/font&gt;&lt;/h1&gt;" style="text;html=1;strokeColor=none;fillColor=none;spacing=5;spacingTop=-20;whiteSpace=wrap;overflow=hidden;rounded=0;" vertex="1" parent="1">
          <mxGeometry x="-100" y="500" width="130" height="120" as="geometry" />
        </mxCell>
        <mxCell id="woJ9Bzw3rTFBJg0xR-H4-19" value="" style="rounded=0;whiteSpace=wrap;html=1;fillColor=none;dashed=1;strokeWidth=1;perimeterSpacing=1;strokeColor=default;" vertex="1" parent="1">
          <mxGeometry x="-330" y="320" width="405" height="250" as="geometry" />
        </mxCell>
        <mxCell id="woJ9Bzw3rTFBJg0xR-H4-22" value="MONGO DB" style="shape=cylinder3;whiteSpace=wrap;html=1;boundedLbl=1;backgroundOutline=1;size=15;" vertex="1" parent="1">
          <mxGeometry x="95" y="720" width="105" height="125" as="geometry" />
        </mxCell>
        <mxCell id="woJ9Bzw3rTFBJg0xR-H4-24" value="&lt;h1&gt;DATABASE&lt;/h1&gt;" style="text;html=1;strokeColor=none;fillColor=none;spacing=5;spacingTop=-20;whiteSpace=wrap;overflow=hidden;rounded=0;" vertex="1" parent="1">
          <mxGeometry x="75" y="660" width="195" height="120" as="geometry" />
        </mxCell>
        <mxCell id="woJ9Bzw3rTFBJg0xR-H4-26" value="" style="endArrow=classic;html=1;rounded=0;" edge="1" parent="1">
          <mxGeometry width="50" height="50" relative="1" as="geometry">
            <mxPoint x="-230" y="490" as="sourcePoint" />
            <mxPoint x="-230" y="770" as="targetPoint" />
          </mxGeometry>
        </mxCell>
        <mxCell id="woJ9Bzw3rTFBJg0xR-H4-27" value="" style="endArrow=classic;html=1;rounded=0;" edge="1" parent="1">
          <mxGeometry width="50" height="50" relative="1" as="geometry">
            <mxPoint x="-220" y="770" as="sourcePoint" />
            <mxPoint x="-20" y="770" as="targetPoint" />
          </mxGeometry>
        </mxCell>
        <mxCell id="woJ9Bzw3rTFBJg0xR-H4-29" value="" style="endArrow=classic;html=1;rounded=0;exitX=0.69;exitY=0.679;exitDx=0;exitDy=0;exitPerimeter=0;" edge="1" parent="1" source="woJ9Bzw3rTFBJg0xR-H4-19">
          <mxGeometry width="50" height="50" relative="1" as="geometry">
            <mxPoint x="160" y="390" as="sourcePoint" />
            <mxPoint x="-50" y="720" as="targetPoint" />
          </mxGeometry>
        </mxCell>
        <mxCell id="woJ9Bzw3rTFBJg0xR-H4-30" value="" style="endArrow=classic;html=1;rounded=0;" edge="1" parent="1">
          <mxGeometry width="50" height="50" relative="1" as="geometry">
            <mxPoint x="-40" y="720" as="sourcePoint" />
            <mxPoint x="-20" y="720" as="targetPoint" />
          </mxGeometry>
        </mxCell>
        <mxCell id="woJ9Bzw3rTFBJg0xR-H4-31" value="&lt;h1&gt;&lt;span style=&quot;font-weight: normal;&quot;&gt;&lt;i&gt;Insert Record&lt;/i&gt;&lt;/span&gt;&lt;/h1&gt;" style="text;html=1;strokeColor=none;fillColor=none;spacing=5;spacingTop=-20;whiteSpace=wrap;overflow=hidden;rounded=0;" vertex="1" parent="1">
          <mxGeometry x="-217.5" y="770" width="190" height="120" as="geometry" />
        </mxCell>
        <mxCell id="woJ9Bzw3rTFBJg0xR-H4-32" value="&lt;h1&gt;&lt;span style=&quot;font-weight: normal;&quot;&gt;&lt;i&gt;Fetch all records&lt;/i&gt;&lt;/span&gt;&lt;/h1&gt;" style="text;html=1;strokeColor=none;fillColor=none;spacing=5;spacingTop=-20;whiteSpace=wrap;overflow=hidden;rounded=0;rotation=0;" vertex="1" parent="1">
          <mxGeometry x="-50" y="580" width="200" height="100" as="geometry" />
        </mxCell>
        <mxCell id="woJ9Bzw3rTFBJg0xR-H4-38" value="&lt;h1&gt;&lt;font style=&quot;font-size: 36px; font-weight: normal;&quot;&gt;PRODUCT MANAGEMENT SYSTEM&lt;/font&gt;&lt;/h1&gt;" style="text;html=1;strokeColor=none;fillColor=none;spacing=5;spacingTop=-20;whiteSpace=wrap;overflow=hidden;rounded=0;" vertex="1" parent="1">
          <mxGeometry x="-270" y="80" width="730" height="120" as="geometry" />
        </mxCell>
        <mxCell id="woJ9Bzw3rTFBJg0xR-H4-39" value="&lt;h1&gt;&lt;span style=&quot;font-weight: normal;&quot;&gt;&lt;font style=&quot;font-size: 18px;&quot;&gt;Hosted on Springboot application&lt;/font&gt;&lt;/span&gt;&lt;/h1&gt;" style="text;html=1;strokeColor=none;fillColor=none;spacing=5;spacingTop=-20;whiteSpace=wrap;overflow=hidden;rounded=0;" vertex="1" parent="1">
          <mxGeometry x="-290" y="190" width="287.5" height="120" as="geometry" />
        </mxCell>
      </root>
    </mxGraphModel>
  </diagram>
</mxfile>
